<?xml version="1.0" standalone="no"?>
<!DOCTYPE svg PUBLIC "-//W3C//DTD SVG 20010904//EN"
 "http://www.w3.org/TR/2001/REC-SVG-20010904/DTD/svg10.dtd">
<svg version="1.0" xmlns="http://www.w3.org/2000/svg"
 width="512.000000pt" height="512.000000pt" viewBox="0 0 512.000000 512.000000"
 preserveAspectRatio="xMidYMid meet">
<metadata>
Created by potrace 1.16, written by Peter Selinger 2001-2019
</metadata>
<g transform="translate(0.000000,512.000000) scale(0.100000,-0.100000)"
fill="#000000" stroke="none">
<path d="M4078 5087 c-37 -13 -91 -40 -120 -60 -29 -20 -156 -140 -283 -267
l-230 -230 525 -525 525 -525 291 292 c271 272 293 297 314 353 18 50 21 75
18 150 -6 144 -20 163 -341 482 -284 283 -317 309 -432 339 -78 21 -189 17
-267 -9z"/>
<path d="M1855 2940 l-1320 -1320 525 -525 525 -525 1325 1325 1325 1325 -520
520 c-286 286 -524 520 -530 520 -6 0 -604 -594 -1330 -1320z"/>
<path d="M255 1318 c-67 -278 -255 -1160 -255 -1194 0 -39 5 -51 34 -80 27
-27 42 -34 74 -34 36 0 1190 274 1201 286 6 5 -1030 1044 -1041 1044 -4 0 -10
-10 -13 -22z"/>
</g>
</svg>
