<?xml version="1.0" standalone="no"?>
<!DOCTYPE svg PUBLIC "-//W3C//DTD SVG 20010904//EN"
 "http://www.w3.org/TR/2001/REC-SVG-20010904/DTD/svg10.dtd">
<svg version="1.0" xmlns="http://www.w3.org/2000/svg"
 width="512.000000pt" height="512.000000pt" viewBox="0 0 512.000000 512.000000"
 preserveAspectRatio="xMidYMid meet">
<metadata>
Created by potrace 1.16, written by Peter Selinger 2001-2019
</metadata>
<g transform="translate(0.000000,512.000000) scale(0.100000,-0.100000)"
fill="#53358e" stroke="none">
<path d="M1328 4781 c-145 -47 -269 -174 -312 -320 -14 -49 -16 -245 -16
-1902 0 -1785 1 -1849 19 -1908 46 -147 172 -272 320 -315 48 -14 160 -16 925
-16 851 0 872 1 904 20 95 58 99 216 5 277 -25 17 -80 18 -878 23 -827 5 -851
6 -884 25 -44 26 -70 62 -81 111 -13 52 -13 3516 0 3568 11 49 37 85 81 111
33 19 57 20 884 25 798 5 853 6 878 23 45 29 67 75 67 137 0 65 -24 110 -72
140 -32 19 -52 20 -908 19 -820 0 -879 -1 -932 -18z"/>
<path d="M3312 3340 c-48 -29 -72 -75 -72 -138 0 -29 5 -63 11 -75 6 -12 97
-109 202 -214 l192 -193 -790 0 c-771 0 -791 -1 -823 -20 -48 -30 -72 -75 -72
-140 0 -65 24 -110 72 -140 32 -19 52 -20 823 -20 l790 0 -192 -192 c-105
-106 -196 -203 -202 -215 -6 -12 -11 -46 -11 -75 0 -97 61 -158 158 -158 29 0
65 6 80 14 33 18 695 682 711 713 6 12 11 45 11 73 0 28 -5 61 -11 73 -16 31
-678 695 -711 713 -40 21 -126 18 -166 -6z"/>
</g>
</svg>
