<?xml version="1.0" standalone="no"?>
<!DOCTYPE svg PUBLIC "-//W3C//DTD SVG 20010904//EN"
 "http://www.w3.org/TR/2001/REC-SVG-20010904/DTD/svg10.dtd">
<svg version="1.0" xmlns="http://www.w3.org/2000/svg"
 width="512.000000pt" height="512.000000pt" viewBox="0 0 512.000000 512.000000"
 preserveAspectRatio="xMidYMid meet">
<metadata>
Created by potrace 1.16, written by Peter Selinger 2001-2019
</metadata>
<g transform="translate(0.000000,512.000000) scale(0.100000,-0.100000)"
fill="#000000" stroke="none">
<path d="M1917 5106 c-97 -35 -173 -117 -201 -217 -12 -41 -16 -102 -16 -232
l0 -177 -523 0 c-450 0 -531 -2 -578 -16 -189 -56 -339 -215 -378 -402 -6 -31
-11 -165 -11 -318 l0 -266 34 -34 34 -34 181 0 181 0 0 -1482 c0 -1204 3
-1492 14 -1533 48 -182 199 -333 381 -381 41 -11 325 -14 1528 -14 l1478 0 76
25 c174 59 303 195 349 370 11 41 14 329 14 1533 l0 1482 181 0 181 0 34 34
34 34 0 266 c0 152 -5 288 -11 318 -29 140 -140 289 -264 355 -122 64 -116 63
-692 63 l-523 0 0 177 c0 203 -11 260 -66 336 -38 52 -107 101 -164 117 -21 6
-272 10 -635 10 -479 -1 -608 -4 -638 -14z m1236 -226 c38 -30 47 -77 47 -247
l0 -153 -640 0 -640 0 0 153 c0 170 9 217 47 247 25 20 37 20 593 20 556 0
568 0 593 -20z m1318 -635 c76 -26 140 -83 179 -159 l35 -69 3 -193 4 -194
-2132 0 -2132 0 4 194 3 193 35 69 c38 75 102 132 175 158 62 22 3761 23 3826
1z m-211 -2300 l0 -1464 -22 -58 c-29 -77 -104 -152 -181 -181 l-58 -22 -1439
0 -1439 0 -58 22 c-77 29 -152 104 -181 181 l-22 58 0 1464 0 1465 1700 0
1700 0 0 -1465z"/>
<path d="M1543 2760 c-17 -10 -37 -28 -42 -39 -8 -13 -11 -300 -11 -911 l0
-892 34 -34 c48 -48 104 -48 152 0 l34 34 0 894 c0 982 4 920 -60 953 -39 20
-69 19 -107 -5z"/>
<path d="M2503 2760 c-17 -10 -37 -28 -42 -39 -8 -13 -11 -300 -11 -911 l0
-892 34 -34 c48 -48 104 -48 152 0 l34 34 0 894 c0 982 4 920 -60 953 -39 20
-69 19 -107 -5z"/>
<path d="M3463 2760 c-17 -10 -37 -28 -42 -39 -8 -13 -11 -300 -11 -911 l0
-892 34 -34 c48 -48 104 -48 152 0 l34 34 0 894 c0 982 4 920 -60 953 -39 20
-69 19 -107 -5z"/>
</g>
</svg>
