<?xml version="1.0" standalone="no"?>
<!DOCTYPE svg PUBLIC "-//W3C//DTD SVG 20010904//EN"
 "http://www.w3.org/TR/2001/REC-SVG-20010904/DTD/svg10.dtd">
<svg version="1.0" xmlns="http://www.w3.org/2000/svg"
 width="512.000000pt" height="512.000000pt" viewBox="0 0 512.000000 512.000000"
 preserveAspectRatio="xMidYMid meet">
<metadata>
Created by potrace 1.16, written by Peter Selinger 2001-2019
</metadata>
<g transform="translate(0.000000,512.000000) scale(0.100000,-0.100000)"
fill="#53358e" stroke="none">
<path d="M2310 5114 c-447 -54 -825 -190 -1167 -420 -164 -110 -255 -185 -393
-324 -139 -138 -214 -229 -324 -393 -204 -302 -340 -651 -403 -1032 -26 -158
-26 -612 0 -770 63 -381 199 -730 403 -1032 110 -164 185 -255 324 -393 138
-139 229 -214 393 -324 302 -204 651 -340 1032 -403 88 -14 166 -18 385 -18
219 0 297 4 385 18 381 63 730 199 1032 403 164 110 255 185 393 324 139 138
214 229 324 393 204 302 340 651 403 1032 26 158 26 612 0 770 -63 381 -199
730 -403 1032 -110 164 -185 255 -324 393 -138 139 -229 214 -393 324 -295
199 -631 332 -1002 398 -85 15 -169 20 -370 23 -143 1 -276 1 -295 -1z m-198
-1671 l448 -448 450 450 450 450 217 -218 218 -217 -450 -450 -450 -450 450
-450 450 -450 -218 -217 -217 -218 -450 450 -450 450 -450 -450 -450 -450
-217 218 -218 217 450 450 450 450 -450 450 -450 450 215 215 c118 118 217
215 220 215 3 0 206 -201 452 -447z"/>
</g>
</svg>
