<?xml version="1.0" standalone="no"?>
<!DOCTYPE svg PUBLIC "-//W3C//DTD SVG 20010904//EN"
 "http://www.w3.org/TR/2001/REC-SVG-20010904/DTD/svg10.dtd">
<svg version="1.0" xmlns="http://www.w3.org/2000/svg"
 width="512.000000pt" height="512.000000pt" viewBox="0 0 512.000000 512.000000"
 preserveAspectRatio="xMidYMid meet">
<metadata>
Created by potrace 1.16, written by Peter Selinger 2001-2019
</metadata>
<g transform="translate(0.000000,512.000000) scale(0.100000,-0.100000)"
fill="#f79009" stroke="none">
<path d="M2472 5098 c-17 -13 -124 -129 -238 -258 -113 -129 -209 -238 -213
-242 -4 -5 -148 39 -321 97 -173 58 -329 105 -348 105 -18 0 -48 -6 -66 -14
-64 -27 -72 -50 -145 -408 l-67 -332 -333 -68 c-247 -50 -341 -74 -363 -89
-35 -25 -58 -74 -58 -121 0 -19 47 -175 105 -348 83 -248 102 -317 92 -326 -6
-6 -115 -103 -242 -214 -126 -111 -240 -216 -253 -233 -28 -40 -31 -129 -4
-168 9 -14 123 -120 252 -234 129 -114 241 -213 247 -219 10 -9 -9 -78 -92
-326 -58 -173 -105 -329 -105 -348 0 -47 23 -96 58 -121 22 -15 116 -39 363
-89 l333 -68 67 -332 c73 -358 81 -381 145 -408 18 -8 48 -14 66 -14 19 0 175
47 348 105 173 58 317 102 321 97 4 -4 100 -113 213 -242 114 -129 221 -245
238 -257 39 -29 130 -32 169 -5 14 9 117 121 229 247 111 127 210 238 219 248
17 17 31 13 326 -88 194 -66 324 -105 350 -105 51 0 105 28 128 68 11 18 47
171 85 358 l67 327 326 67 c197 40 340 74 359 86 40 23 70 77 70 124 0 19 -47
177 -105 350 l-105 315 23 21 c12 12 121 109 242 216 121 107 229 205 240 218
16 17 20 36 20 90 0 54 -4 73 -20 90 -11 13 -119 111 -240 218 -121 107 -230
205 -242 216 l-23 21 105 315 c58 173 105 331 105 350 0 47 -30 101 -70 124
-19 12 -162 46 -359 86 l-326 67 -66 326 c-39 192 -75 340 -85 358 -24 41 -77
69 -129 69 -26 0 -156 -39 -350 -105 -295 -101 -309 -105 -326 -88 -9 10 -108
122 -219 248 -112 127 -215 238 -229 247 -39 27 -130 24 -169 -4z m290 -593
c107 -121 207 -226 222 -233 54 -24 107 -13 384 79 150 50 275 89 277 88 1 -2
29 -130 60 -284 32 -154 63 -294 70 -311 25 -60 54 -71 367 -135 160 -33 293
-61 295 -62 1 -2 -37 -123 -86 -270 -106 -316 -105 -314 -91 -366 10 -36 38
-66 238 -243 125 -112 227 -205 227 -208 0 -3 -102 -96 -227 -208 -200 -177
-228 -207 -238 -243 -14 -52 -15 -50 91 -366 49 -147 87 -268 86 -270 -2 -1
-135 -29 -295 -62 -313 -64 -342 -75 -367 -135 -7 -17 -38 -157 -70 -311 -31
-154 -59 -282 -60 -284 -2 -1 -127 38 -277 88 -277 92 -330 103 -384 79 -15
-7 -115 -112 -222 -233 -107 -121 -198 -221 -201 -222 -3 -2 -94 96 -201 218
-107 121 -207 227 -222 235 -52 27 -105 17 -386 -77 -150 -50 -275 -89 -277
-87 -3 2 -30 128 -60 279 -31 151 -63 291 -72 312 -28 65 -48 73 -364 138
-161 33 -295 61 -297 64 -2 2 37 127 87 277 92 277 103 330 79 383 -7 15 -111
115 -233 222 -121 107 -220 199 -220 203 0 4 99 96 220 203 122 107 226 207
233 222 24 53 13 106 -79 383 -50 150 -89 275 -87 277 2 3 128 29 279 60 150
30 293 64 317 75 32 15 47 30 62 62 11 24 44 166 75 317 30 151 57 277 60 279
2 2 127 -37 277 -87 281 -94 334 -104 386 -77 15 8 115 114 222 235 107 122
198 220 201 218 3 -1 94 -101 201 -222z"/>
<path d="M3075 3109 c-16 -5 -37 -15 -46 -22 -31 -24 -59 -82 -59 -122 0 -22
32 -227 70 -455 51 -304 74 -421 88 -440 10 -14 39 -36 65 -48 95 -48 177 -4
224 123 15 41 30 72 34 69 4 -2 17 -33 29 -69 25 -76 65 -120 121 -135 67 -18
144 13 174 71 18 33 145 809 145 883 0 88 -62 150 -151 150 -55 0 -106 -27
-131 -70 -10 -16 -25 -77 -33 -134 -22 -141 -19 -136 -55 -106 -58 49 -146 46
-205 -6 -19 -16 -35 -26 -35 -22 0 44 -43 243 -57 267 -33 56 -115 86 -178 66z"/>
<path d="M1273 3094 c-18 -9 -43 -33 -55 -53 -23 -36 -23 -37 -23 -481 0 -430
1 -446 20 -480 43 -72 145 -97 216 -52 58 36 63 52 69 216 l5 150 105 -174
c116 -193 138 -214 219 -214 55 0 105 26 132 70 18 30 19 54 19 480 0 430 -1
450 -20 482 -58 95 -204 97 -262 3 -20 -31 -24 -53 -28 -171 l-5 -134 -89 149
c-96 162 -116 189 -158 211 -36 19 -105 17 -145 -2z"/>
<path d="M2202 3090 c-18 -11 -41 -34 -52 -52 -20 -32 -20 -48 -18 -488 4
-596 -30 -545 368 -545 304 0 316 3 358 85 28 56 28 86 -1 140 -38 71 -65 80
-254 80 l-163 0 0 50 0 50 56 0 c76 0 127 29 155 88 53 108 -17 212 -146 220
l-65 4 0 38 0 38 163 4 c189 4 217 13 255 88 28 56 28 86 -1 140 -41 77 -53
80 -357 80 -247 0 -267 -1 -298 -20z"/>
</g>
</svg>
